<svg width="40" height="40" viewBox="0 0 40 40" fill="none" xmlns="http://www.w3.org/2000/svg">
<rect width="40" height="40" rx="20" fill="white"/>
<mask id="mask0_16_13024" style="mask-type:alpha" maskUnits="userSpaceOnUse" x="0" y="0" width="40" height="40">
<rect width="40" height="40" rx="20" fill="white"/>
</mask>
<g mask="url(#mask0_16_13024)">
<path fill-rule="evenodd" clip-rule="evenodd" d="M18.5858 18.5858C17.8458 19.3257 17.8069 20.5012 18.469 21.287L18.5858 21.4142L22.7052 25.2929C23.0958 25.6834 23.0958 26.3166 22.7052 26.7071C22.3447 27.0676 21.7775 27.0953 21.3852 26.7903L21.291 26.7071L17.1716 22.8284C15.6615 21.3184 15.6112 18.9014 17.0206 17.3309L17.1716 17.1716L21.291 13.2929C21.6815 12.9024 22.3147 12.9024 22.7052 13.2929C23.0657 13.6534 23.0934 14.2206 22.7884 14.6129L22.7052 14.7071L18.5858 18.5858Z" fill="#121826"/>
</g>
</svg>
