<svg width="19" height="20" viewBox="0 0 19 20" fill="none" xmlns="http://www.w3.org/2000/svg">
<path fill-rule="evenodd" clip-rule="evenodd" d="M0.105791 0.553011C0.352781 0.0590312 0.953451 -0.141199 1.44743 0.105791L2.45094 0.607551C3.38021 1.07218 4.00292 1.98454 4.09698 3.01922L4.27707 5.00022H16.6745C18.0032 5.00022 18.9626 6.27203 18.5975 7.54966L17.3762 11.8244C17.0082 13.1123 15.8311 14.0002 14.4916 14.0002H5.82665C4.27504 14.0002 2.97944 12.8171 2.83897 11.2718L2.10519 3.20029C2.07384 2.8554 1.86627 2.55128 1.55651 2.3964L0.553011 1.89465C0.0590312 1.64766 -0.141199 1.04698 0.105791 0.553011ZM5 20C6.10457 20 7 19.1046 7 18C7 16.8954 6.10457 16 5 16C3.89543 16 3 16.8954 3 18C3 19.1046 3.89543 20 5 20ZM15 20C16.1046 20 17 19.1046 17 18C17 16.8954 16.1046 16 15 16C13.8954 16 13 16.8954 13 18C13 19.1046 13.8954 20 15 20Z" fill="white"/>
</svg>
