<svg width="56" height="56" viewBox="0 0 56 56" fill="none" xmlns="http://www.w3.org/2000/svg">
<rect width="56" height="56" rx="24" fill="white"/>
<path fill-rule="evenodd" clip-rule="evenodd" d="M19.1058 18.553C19.3528 18.059 19.9535 17.8588 20.4474 18.1058L21.4509 18.6076C22.3802 19.0722 23.0029 19.9845 23.097 21.0192L23.2771 23.0002H35.6745C37.0032 23.0002 37.9626 24.272 37.5975 25.5497L36.3762 29.8244C36.0082 31.1123 34.8311 32.0002 33.4916 32.0002H24.8267C23.275 32.0002 21.9794 30.8171 21.839 29.2718L21.1052 21.2003C21.0738 20.8554 20.8663 20.5513 20.5565 20.3964L19.553 19.8947C19.059 19.6477 18.8588 19.047 19.1058 18.553ZM24 38C25.1046 38 26 37.1046 26 36C26 34.8954 25.1046 34 24 34C22.8954 34 22 34.8954 22 36C22 37.1046 22.8954 38 24 38ZM34 38C35.1046 38 36 37.1046 36 36C36 34.8954 35.1046 34 34 34C32.8954 34 32 34.8954 32 36C32 37.1046 32.8954 38 34 38Z" fill="#FF7A28"/>
</svg>
