<svg width="24" height="24" viewBox="0 0 24 24" fill="none" xmlns="http://www.w3.org/2000/svg">
<path fill-rule="evenodd" clip-rule="evenodd" d="M3.10579 2.55301C3.35278 2.05903 3.95345 1.8588 4.44743 2.10579L5.45094 2.60755C6.38021 3.07218 7.00292 3.98454 7.09698 5.01922L7.27707 7.00022H19.6745C21.0032 7.00022 21.9626 8.27203 21.5975 9.54966L20.3762 13.8244C20.0082 15.1123 18.8311 16.0002 17.4916 16.0002H8.82665C7.27504 16.0002 5.97944 14.8171 5.83897 13.2718L5.10519 5.20029C5.07384 4.8554 4.86627 4.55128 4.55651 4.3964L3.55301 3.89465C3.05903 3.64766 2.8588 3.04698 3.10579 2.55301ZM8 22C9.10457 22 10 21.1046 10 20C10 18.8954 9.10457 18 8 18C6.89543 18 6 18.8954 6 20C6 21.1046 6.89543 22 8 22ZM18 22C19.1046 22 20 21.1046 20 20C20 18.8954 19.1046 18 18 18C16.8954 18 16 18.8954 16 20C16 21.1046 16.8954 22 18 22Z" fill="white"/>
</svg>
