<svg width="24" height="24" viewBox="0 0 24 24" fill="none" xmlns="http://www.w3.org/2000/svg">
<path fill-rule="evenodd" clip-rule="evenodd" d="M22 12C22 17.5228 17.5228 22 12 22C6.47715 22 2 17.5228 2 12C2 6.47715 6.47715 2 12 2C17.5228 2 22 6.47715 22 12ZM12 6C12.5523 6 13 6.44772 13 7V11.5858L15.2071 13.7929C15.5976 14.1834 15.5976 14.8166 15.2071 15.2071C14.8166 15.5976 14.1834 15.5976 13.7929 15.2071L11.2929 12.7071C11.1054 12.5196 11 12.2652 11 12V7C11 6.44772 11.4477 6 12 6Z" fill="#8EE04E"/>
</svg>
