<svg width="24" height="24" viewBox="0 0 24 24" fill="none" xmlns="http://www.w3.org/2000/svg">
<path fill-rule="evenodd" clip-rule="evenodd" d="M10.0001 4C10.0001 2.89543 10.8955 2 12.0001 2C13.1046 2 14.0001 2.89543 14.0001 4C14.0001 4.14836 14.1007 4.27722 14.2431 4.31875C14.8049 4.48252 15.3411 4.70625 15.8444 4.98253C15.9748 5.05412 16.1375 5.03411 16.2426 4.92893C17.0237 4.14788 18.29 4.14788 19.0711 4.92893C19.8521 5.70998 19.8521 6.97631 19.0711 7.75736C18.9659 7.86254 18.9459 8.02525 19.0175 8.15564C19.2938 8.65893 19.5175 9.19516 19.6813 9.75695C19.7228 9.89937 19.8517 10 20 10C21.1046 10 22 10.8954 22 12C22 13.1046 21.1046 14 20 14C19.8517 14 19.7228 14.1006 19.6813 14.2431C19.5175 14.8048 19.2938 15.3411 19.0175 15.8444C18.9459 15.9747 18.9659 16.1375 19.0711 16.2426C19.8521 17.0237 19.8521 18.29 19.0711 19.0711C18.29 19.8521 17.0237 19.8521 16.2426 19.0711C16.1375 18.9659 15.9747 18.9459 15.8444 19.0175C15.3411 19.2938 14.8049 19.5175 14.2431 19.6813C14.1007 19.7228 14.0001 19.8516 14.0001 20C14.0001 21.1046 13.1046 22 12.0001 22C10.8955 22 10.0001 21.1046 10.0001 20C10.0001 19.8517 9.89944 19.7228 9.75703 19.6813C9.19521 19.5175 8.65895 19.2938 8.15564 19.0175C8.02525 18.9459 7.86254 18.9659 7.75736 19.0711C6.97631 19.8521 5.70998 19.8521 4.92893 19.0711C4.14788 18.29 4.14788 17.0237 4.92893 16.2426C5.03411 16.1375 5.05412 15.9747 4.98253 15.8444C4.70623 15.3411 4.4825 14.8048 4.31872 14.2431C4.2772 14.1006 4.14835 14 4 14C2.89543 14 2 13.1046 2 12C2 10.8954 2.89543 10 4 10C4.14835 10 4.2772 9.89937 4.31872 9.75695C4.4825 9.19516 4.70623 8.65893 4.98253 8.15564C5.05412 8.02525 5.03411 7.86254 4.92893 7.75736C4.14788 6.97631 4.14788 5.70998 4.92893 4.92893C5.70998 4.14788 6.97631 4.14788 7.75736 4.92893C7.86254 5.03411 8.02525 5.05412 8.15564 4.98253C8.65895 4.70622 9.19521 4.48248 9.75703 4.3187C9.89944 4.27718 10.0001 4.14834 10.0001 4ZM15.0001 12C15.0001 13.6569 13.657 15 12.0001 15C10.3433 15 9.00012 13.6569 9.00012 12C9.00012 10.3431 10.3433 9 12.0001 9C13.657 9 15.0001 10.3431 15.0001 12Z" fill="white" fill-opacity="0.4"/>
</svg>
