<svg width="25" height="24" viewBox="0 0 25 24" fill="none" xmlns="http://www.w3.org/2000/svg">
<path d="M20.5 12.1778C20.5 11.52 20.4455 11.04 20.3277 10.5422H12.6633V13.5111H17.1621C17.0714 14.2489 16.5816 15.36 15.4932 16.1067L15.4779 16.206L17.9012 18.0458L18.0691 18.0622C19.611 16.6667 20.5 14.6134 20.5 12.1778Z" fill="#4285F4"/>
<path d="M12.6633 20C14.8673 20 16.7177 19.2889 18.0692 18.0623L15.4932 16.1066C14.8039 16.5778 13.8787 16.9067 12.6633 16.9067C10.5046 16.9067 8.67242 15.5112 8.0193 13.5823L7.92356 13.5902L5.40374 15.5014L5.37079 15.5912C6.71318 18.2044 9.47054 20 12.6633 20Z" fill="#34A853"/>
<path d="M8.01923 13.5823C7.8469 13.0845 7.74716 12.5511 7.74716 12.0001C7.74716 11.4489 7.8469 10.9156 8.01017 10.4178L8.00561 10.3118L5.4542 8.37L5.37073 8.40891C4.81746 9.49337 4.5 10.7112 4.5 12.0001C4.5 13.289 4.81746 14.5067 5.37073 15.5912L8.01923 13.5823Z" fill="#FBBC05"/>
<path d="M12.6633 7.09332C14.1962 7.09332 15.2301 7.7422 15.8198 8.28447L18.1236 6.08C16.7087 4.79112 14.8673 4 12.6633 4C9.47054 4 6.71318 5.79554 5.37079 8.40887L8.01023 10.4178C8.67242 8.4889 10.5046 7.09332 12.6633 7.09332Z" fill="#EB4335"/>
</svg>
