<svg width="108" height="24" viewBox="0 0 108 24" fill="none" xmlns="http://www.w3.org/2000/svg">
<mask id="mask0_48_2820" style="mask-type:alpha" maskUnits="userSpaceOnUse" x="0" y="0" width="24" height="24">
<rect width="24" height="24" fill="white"/>
</mask>
<g mask="url(#mask0_48_2820)">
<path fill-rule="evenodd" clip-rule="evenodd" d="M3 12C3 7.02944 7.02944 3 12 3C16.9706 3 21 7.02944 21 12C21 16.9706 16.9706 21 12 21C7.02944 21 3 16.9706 3 12ZM17 12C17 9.23858 14.7614 7 12 7C9.23858 7 7 9.23858 7 12C7 14.7614 9.23858 17 12 17C14.7614 17 17 14.7614 17 12Z" fill="#FF7A28"/>
</g>
<path fill-rule="evenodd" clip-rule="evenodd" d="M29.1494 18.7143C29.7841 18.7143 30.2987 18.1997 30.2987 17.5649V13H33.9822C34.6134 13 35.1251 12.4883 35.1251 11.8571V11.8571C35.1251 11.226 34.6134 10.7143 33.9822 10.7143H30.2987V7.29524H35.122C35.7558 7.29524 36.2696 6.78143 36.2696 6.14762V6.14762C36.2696 5.51381 35.7558 5 35.122 5H28.0819C28.0367 5 28 5.03666 28 5.08188V17.5649C28 18.1997 28.5146 18.7143 29.1494 18.7143V18.7143ZM41.1903 19C42.2204 19 43.1202 18.7698 43.8896 18.3095C44.659 17.8492 45.2584 17.2111 45.6876 16.3952C46.1168 15.5794 46.3314 14.6381 46.3314 13.5714C46.3314 12.5111 46.1184 11.573 45.6923 10.7571C45.2663 9.94127 44.6686 9.30159 43.8992 8.8381C43.1297 8.3746 42.2268 8.14286 41.1903 8.14286C40.1793 8.14286 39.289 8.37143 38.5196 8.82857C37.7502 9.28571 37.1493 9.92063 36.7169 10.7333C36.2845 11.546 36.0683 12.4921 36.0683 13.5714C36.0683 14.6317 36.2797 15.5698 36.7026 16.3857C37.1254 17.2016 37.7216 17.8413 38.491 18.3048C39.2604 18.7683 40.1602 19 41.1903 19ZM41.1903 16.8476C40.3064 16.8476 39.6372 16.5508 39.1825 15.9571C38.7279 15.3635 38.5005 14.5683 38.5005 13.5714C38.5005 12.9238 38.5959 12.354 38.7867 11.8619C38.9774 11.3698 39.2715 10.9857 39.669 10.7095C40.0664 10.4333 40.5735 10.2952 41.1903 10.2952C42.0933 10.2952 42.7705 10.5921 43.2219 11.1857C43.6734 11.7794 43.8992 12.5746 43.8992 13.5714C43.8992 14.5365 43.6766 15.3238 43.2315 15.9333C42.7864 16.5429 42.106 16.8476 41.1903 16.8476ZM51.9197 19C52.9499 19 53.8496 18.7698 54.6191 18.3095C55.3885 17.8492 55.9878 17.2111 56.417 16.3952C56.8462 15.5794 57.0608 14.6381 57.0608 13.5714C57.0608 12.5111 56.8478 11.573 56.4218 10.7571C55.9957 9.94127 55.398 9.30159 54.6286 8.8381C53.8592 8.3746 52.9562 8.14286 51.9197 8.14286C50.9087 8.14286 50.0185 8.37143 49.249 8.82857C48.4796 9.28571 47.8787 9.92063 47.4463 10.7333C47.0139 11.546 46.7977 12.4921 46.7977 13.5714C46.7977 14.6317 47.0091 15.5698 47.432 16.3857C47.8549 17.2016 48.451 17.8413 49.2204 18.3048C49.9898 18.7683 50.8896 19 51.9197 19ZM51.9197 16.8476C51.0359 16.8476 50.3666 16.5508 49.9119 15.9571C49.4573 15.3635 49.23 14.5683 49.23 13.5714C49.23 12.9238 49.3253 12.354 49.5161 11.8619C49.7069 11.3698 50.001 10.9857 50.3984 10.7095C50.7958 10.4333 51.3029 10.2952 51.9197 10.2952C52.8227 10.2952 53.4999 10.5921 53.9514 11.1857C54.4029 11.7794 54.6286 12.5746 54.6286 13.5714C54.6286 14.5365 54.406 15.3238 53.9609 15.9333C53.5158 16.5429 52.8354 16.8476 51.9197 16.8476ZM62.2295 19C63.2342 19 64.0767 18.7619 64.7571 18.2857C64.8327 18.2328 64.9062 18.1778 64.9777 18.1206L65.1673 17.9587V17.9842C65.1673 18.5452 65.6221 19 66.1831 19V19C66.7441 19 67.1989 18.5452 67.1989 17.9842V6.15889C67.1989 5.51885 66.6801 5 66.04 5V5C65.4 5 64.8811 5.51885 64.8811 6.15889V8.93016L64.781 8.85238C64.1829 8.42667 63.4574 8.19252 62.6044 8.14995L62.3153 8.14286C61.3424 8.14286 60.4967 8.37937 59.7782 8.85238C59.0596 9.3254 58.5048 9.96984 58.1138 10.7857C57.7227 11.6016 57.5272 12.5302 57.5272 13.5714C57.5272 14.6 57.7211 15.5238 58.109 16.3429C58.4969 17.1619 59.0437 17.8095 59.7496 18.2857C60.4554 18.7619 61.282 19 62.2295 19ZM62.5824 16.9429C61.9847 16.9429 61.4919 16.7937 61.104 16.4952C60.7161 16.1968 60.4284 15.7921 60.2408 15.281C60.0532 14.7698 59.9594 14.2 59.9594 13.5714C59.9594 12.9492 60.0548 12.3825 60.2456 11.8714C60.4363 11.3603 60.732 10.954 61.1326 10.6524C61.5332 10.3508 62.0419 10.2 62.6587 10.2C63.2437 10.2 63.7206 10.3413 64.0895 10.6238C64.4583 10.9063 64.7301 11.3 64.905 11.8048C65.0798 12.3095 65.1673 12.8984 65.1673 13.5714C65.1673 14.2381 65.0798 14.8254 64.905 15.3333C64.7301 15.8413 64.4535 16.2365 64.0751 16.519C63.6968 16.8016 63.1992 16.9429 62.5824 16.9429ZM73.7602 19C74.7076 19 75.5343 18.7619 76.2401 18.2857C76.9459 17.8095 77.4928 17.1619 77.8807 16.3429C78.2686 15.5238 78.4625 14.6 78.4625 13.5714C78.4625 12.5302 78.2654 11.6016 77.8711 10.7857C77.4769 9.96984 76.9221 9.3254 76.2067 8.85238C75.4913 8.37937 74.6472 8.14286 73.6743 8.14286C72.695 8.14286 71.8732 8.37937 71.2087 8.85238L71.1085 8.9291V6.15889C71.1085 5.51885 70.5897 5 69.9496 5V5C69.3096 5 68.7907 5.51885 68.7907 6.15889V17.9842C68.7907 18.5452 69.2455 19 69.8066 19V19C70.3676 19 70.8224 18.5452 70.8224 17.9842V17.9587L71.012 18.1206L71.2325 18.2857C71.9129 18.7619 72.7555 19 73.7602 19ZM73.4072 16.9429C72.7904 16.9429 72.2929 16.8016 71.9145 16.519C71.5362 16.2365 71.2595 15.8413 71.0847 15.3333C70.9098 14.8254 70.8224 14.2381 70.8224 13.5714C70.8224 12.8984 70.9098 12.3095 71.0847 11.8048C71.2595 11.3 71.5314 10.9063 71.9002 10.6238C72.269 10.3413 72.7459 10.2 73.3309 10.2C73.9477 10.2 74.4564 10.3508 74.857 10.6524C75.2577 10.954 75.5533 11.3603 75.7441 11.8714C75.9349 12.3825 76.0302 12.9492 76.0302 13.5714C76.0302 14.2 75.9365 14.7698 75.7489 15.281C75.5613 15.7921 75.2736 16.1968 74.8857 16.4952C74.4978 16.7937 74.005 16.9429 73.4072 16.9429ZM82.3816 19C83.31 19 84.0842 18.827 84.7042 18.481C85.1175 18.2503 85.4962 17.9314 85.8403 17.5243L85.9956 17.3312L85.9959 17.7084C85.9963 18.2641 86.4469 18.7143 87.0025 18.7143V18.7143C87.5585 18.7143 88.0092 18.2636 88.0092 17.7076V12.4C88.0092 11.9556 87.9901 11.5444 87.952 11.1667C87.9138 10.7889 87.8025 10.419 87.6181 10.0571C87.2811 9.37778 86.7645 8.88889 86.0682 8.59048C85.3719 8.29206 84.5659 8.14286 83.6502 8.14286C82.4357 8.14286 81.4707 8.40635 80.7554 8.93333C80.4645 9.14763 80.1696 9.5341 79.9222 9.91728C79.5568 10.4831 79.8738 11.208 80.5166 11.4093V11.4093C81.0279 11.5694 81.5656 11.3266 81.9108 10.9169C82.0363 10.7679 82.1728 10.6376 82.3053 10.5714C82.7377 10.3556 83.186 10.2476 83.6502 10.2476C84.4196 10.2476 84.9665 10.4159 85.2908 10.7524C85.543 11.0141 85.6953 11.3891 85.7475 11.8775L85.755 11.982L85.2039 12.0624L84.5421 12.1571C83.8903 12.2492 83.2862 12.3492 82.7298 12.4571C82.1734 12.5651 81.6885 12.6857 81.2752 12.819C80.7284 13.0032 80.2832 13.2397 79.9399 13.5286C79.5965 13.8175 79.3421 14.1603 79.1768 14.5571C79.0115 14.954 78.9288 15.4 78.9288 15.8952C78.9288 16.4603 79.0608 16.9778 79.3246 17.4476C79.5885 17.9175 79.978 18.2937 80.4931 18.5762C81.0081 18.8587 81.6377 19 82.3816 19ZM82.8395 17.1714C82.477 17.1714 82.1734 17.1143 81.9286 17C81.6838 16.8857 81.4978 16.7317 81.3706 16.5381C81.2434 16.3444 81.1798 16.1206 81.1798 15.8667C81.1798 15.6444 81.2291 15.4508 81.3277 15.2857C81.4262 15.1206 81.5677 14.9746 81.7521 14.8476C81.9365 14.7206 82.1623 14.6095 82.4293 14.5143C82.7028 14.4254 83.0175 14.3444 83.3736 14.2714C83.7297 14.1984 84.1558 14.1206 84.6517 14.0381C84.8997 13.9968 85.1724 13.9524 85.4696 13.9048L85.7253 13.8646L85.721 14.0429C85.7191 14.107 85.7168 14.174 85.7143 14.2438L85.7057 14.4619C85.6898 14.8397 85.6215 15.1746 85.5006 15.4667C85.4243 15.7016 85.2765 15.9524 85.0571 16.219C84.8377 16.4857 84.5436 16.7111 84.1748 16.8952C83.806 17.0794 83.3609 17.1714 82.8395 17.1714ZM93.4068 19C94.7358 19 95.777 18.7048 96.5305 18.1143C97.2841 17.5238 97.6608 16.7111 97.6608 15.6762C97.6608 15.1429 97.5511 14.6889 97.3318 14.3143C97.1124 13.9397 96.7563 13.6175 96.2635 13.3476C95.7707 13.0778 95.1141 12.8381 94.2938 12.6286C93.4926 12.4254 92.8901 12.254 92.4863 12.1143C92.0825 11.9746 91.8139 11.8349 91.6804 11.6952C91.5468 11.5556 91.4801 11.3873 91.4801 11.1905C91.4801 10.8413 91.6454 10.5698 91.976 10.3762C92.3067 10.1825 92.7423 10.1016 93.2828 10.1333C93.8487 10.1651 94.3018 10.3079 94.642 10.5619C94.6819 10.5917 94.7207 10.6288 94.758 10.6711C95.1569 11.123 95.6796 11.5211 96.273 11.4152V11.4152C96.9757 11.2897 97.4383 10.5718 97.1107 9.93757C97.0376 9.79606 96.9594 9.66818 96.8787 9.57143C96.4972 9.11429 95.9964 8.7619 95.3764 8.51429C94.7564 8.26667 94.0458 8.14286 93.2446 8.14286C92.4243 8.14286 91.7121 8.27143 91.1081 8.52857C90.504 8.78571 90.0334 9.15238 89.6964 9.62857C89.3594 10.1048 89.1909 10.6635 89.1909 11.3048C89.1909 11.819 89.3022 12.2571 89.5247 12.619C89.7473 12.981 90.1129 13.2937 90.6216 13.5571C91.1303 13.8206 91.8171 14.0667 92.6819 14.2952C93.4576 14.4984 94.0331 14.6667 94.4083 14.8C94.7835 14.9333 95.0267 15.0714 95.138 15.2143C95.2492 15.3571 95.3049 15.546 95.3049 15.781C95.3049 16.1619 95.1539 16.4619 94.8518 16.681C94.5498 16.9 94.1221 17.0095 93.5689 17.0095C92.9394 17.0095 92.418 16.8635 92.0047 16.5714C91.8807 16.4839 91.7591 16.3409 91.6495 16.1836C91.3373 15.7357 90.826 15.4296 90.2864 15.5129V15.5129C89.5447 15.6273 89.0911 16.3923 89.4539 17.0492C89.694 17.4839 89.9892 17.9145 90.3069 18.1429C91.1017 18.7143 92.135 19 93.4068 19ZM106.921 14.2095C107.539 14.2095 108.036 13.7018 107.989 13.0858C107.934 12.3685 107.83 11.4852 107.637 11C107.274 10.0921 106.719 9.38889 105.972 8.89048C105.225 8.39206 104.317 8.14286 103.249 8.14286C102.238 8.14286 101.348 8.37143 100.578 8.82857C99.809 9.28571 99.2081 9.92857 98.7757 10.7571C98.3433 11.5857 98.1271 12.5619 98.1271 13.6857C98.1271 14.727 98.3481 15.6476 98.79 16.4476C99.232 17.2476 99.8472 17.873 100.636 18.3238C101.424 18.7746 102.34 19 103.383 19C104.375 19 105.282 18.7429 106.106 18.2286C106.405 18.0419 106.727 17.7059 107.017 17.3537C107.525 16.7356 107.185 15.841 106.419 15.6097V15.6097C105.959 15.4705 105.459 15.6145 105.143 15.9776L104.965 16.1825C104.799 16.3726 104.593 16.5237 104.355 16.606C104.042 16.7139 103.587 16.8476 103.249 16.8476C102.372 16.8476 101.704 16.5619 101.246 15.9905C100.913 15.5749 100.701 15.0351 100.61 14.371L100.592 14.2095H106.921V14.2095ZM105.712 12.4762H100.648L100.679 12.3143C100.774 11.8674 100.927 11.4875 101.136 11.1746L101.246 11.0238C101.704 10.4429 102.403 10.1524 103.345 10.1524C104.178 10.1524 104.788 10.4095 105.176 10.9238C105.434 11.2667 105.608 11.7436 105.697 12.3545L105.712 12.4762Z" fill="white"/>
</svg>
