<svg width="64" height="64" viewBox="0 0 64 64" fill="none" xmlns="http://www.w3.org/2000/svg">
<rect width="64" height="64" rx="32" fill="#FF7A28"/>
<mask id="mask0_238_7694" style="mask-type:alpha" maskUnits="userSpaceOnUse" x="0" y="0" width="64" height="64">
<rect width="64" height="64" rx="32" fill="white"/>
</mask>
<g mask="url(#mask0_238_7694)">
<path fill-rule="evenodd" clip-rule="evenodd" d="M33.0576 22.2733C32.4049 21.9089 31.6139 21.9089 30.9514 22.2733L24.7317 25.7044C24.2769 25.9574 24 26.4534 24 27C24 27.5465 24.2769 28.0425 24.7317 28.2955L30.9514 31.7267C31.2777 31.9089 31.6435 32 31.9995 32C32.3555 32 32.7214 31.9089 33.0477 31.7267L39.2673 28.2955C39.7222 28.0425 39.999 27.5465 39.999 27C40.0188 26.4534 39.7321 25.9574 39.2772 25.7044L33.0576 22.2733ZM24.0107 30.1517C23.5757 29.927 23.073 29.9563 22.6573 30.2103C22.2417 30.4643 22 30.9136 22 31.402V36.8035C22 37.7412 22.5123 38.5813 23.3437 39.0013L28.9988 41.8535C29.1922 41.9512 29.4048 42 29.6175 42C29.8688 42 30.1202 41.9317 30.3425 41.7851C30.7582 41.5312 30.9999 41.0818 30.9999 40.5934V35.1919C31.0095 34.2737 30.4972 33.4337 29.6658 33.0136L24.0107 30.1517ZM41.3427 30.2103C40.927 29.9563 40.4243 29.927 39.9893 30.1517L34.3342 33.0136C33.5028 33.4337 32.9905 34.2737 33.0001 35.1919V40.5934C33.0001 41.0818 33.2418 41.5312 33.6575 41.7851C33.8798 41.9317 34.1312 42 34.3825 42C34.5952 42 34.8078 41.9512 35.0012 41.8535L40.6563 39.0013C41.4877 38.5813 42 37.7412 42 36.8035V31.402C42 30.9136 41.7583 30.4643 41.3427 30.2103Z" fill="white"/>
</g>
</svg>
