<svg width="28" height="28" viewBox="0 0 28 28" fill="none" xmlns="http://www.w3.org/2000/svg">
<rect width="28" height="28" rx="10" fill="#FF7A28"/>
<path fill-rule="evenodd" clip-rule="evenodd" d="M8.07053 7.70193C8.23519 7.37261 8.63563 7.23912 8.96495 7.40378L9.63396 7.73829C10.2535 8.04804 10.6686 8.65628 10.7313 9.34607L10.8514 10.6667H19.1163C20.0021 10.6667 20.6417 11.5146 20.3983 12.3664L19.5841 15.2162C19.3388 16.0748 18.5541 16.6667 17.6611 16.6667H11.8844C10.85 16.6667 9.98629 15.878 9.89265 14.8478L9.40346 9.46678C9.38256 9.23685 9.24418 9.03411 9.03767 8.93085L8.36867 8.59635C8.03935 8.43169 7.90587 8.03124 8.07053 7.70193ZM11.3333 20.6666C12.0697 20.6666 12.6667 20.0697 12.6667 19.3333C12.6667 18.5969 12.0697 17.9999 11.3333 17.9999C10.597 17.9999 10 18.5969 10 19.3333C10 20.0697 10.597 20.6666 11.3333 20.6666ZM18 20.6666C18.7364 20.6666 19.3333 20.0697 19.3333 19.3333C19.3333 18.5969 18.7364 17.9999 18 17.9999C17.2636 17.9999 16.6667 18.5969 16.6667 19.3333C16.6667 20.0697 17.2636 20.6666 18 20.6666Z" fill="white"/>
</svg>
