<svg width="375" height="144" viewBox="0 0 375 144" fill="none" xmlns="http://www.w3.org/2000/svg">
<path fill-rule="evenodd" clip-rule="evenodd" d="M-144 0C-144 -79.529 -79.529 -144 0 -144C79.529 -144 144 -79.529 144 0C144 79.529 79.529 144 0 144C-79.529 144 -144 79.529 -144 0ZM80 0C80 -44.1828 44.1828 -80 0 -80C-44.1828 -80 -80 -44.1828 -80 0C-80 44.1828 -44.1828 80 0 80C44.1828 80 80 44.1828 80 0Z" fill="#FECE80"/>
<path fill-rule="evenodd" clip-rule="evenodd" d="M303 0C303 -39.7645 335.235 -72 375 -72C414.765 -72 447 -39.7645 447 0C447 39.7645 414.765 72 375 72C335.235 72 303 39.7645 303 0ZM415 0C415 -22.0914 397.091 -40 375 -40C352.909 -40 335 -22.0914 335 0C335 22.0914 352.909 40 375 40C397.091 40 415 22.0914 415 0Z" fill="#FF7A28"/>
</svg>
