<svg width="16" height="16" viewBox="0 0 16 16" fill="none" xmlns="http://www.w3.org/2000/svg">
<path d="M9.90114 13.1274C10.9584 13.7061 11.8883 13.0047 11.6861 11.7772L11.323 9.5732L12.861 8.01232C13.7164 7.14423 13.363 6.00677 12.1792 5.82768L10.0537 5.50612L9.1079 3.51078C8.57808 2.39309 7.4277 2.38107 6.89689 3.50087L5.94634 5.50612L3.82085 5.82768C2.63874 6.00652 2.28247 7.14301 3.13906 8.01232L4.67708 9.5732L4.31401 11.7772C4.11208 13.0029 5.04014 13.7069 6.09894 13.1274L8.00004 12.0868L9.90114 13.1274Z" fill="#FF7A28"/>
<mask id="mask0_48_4685" style="mask-type:alpha" maskUnits="userSpaceOnUse" x="2" y="2" width="12" height="12">
<path d="M9.90114 13.1274C10.9584 13.7061 11.8883 13.0047 11.6861 11.7772L11.323 9.5732L12.861 8.01232C13.7164 7.14423 13.363 6.00677 12.1792 5.82768L10.0537 5.50612L9.1079 3.51078C8.57808 2.39309 7.4277 2.38107 6.89689 3.50087L5.94634 5.50612L3.82085 5.82768C2.63874 6.00652 2.28247 7.14301 3.13906 8.01232L4.67708 9.5732L4.31401 11.7772C4.11208 13.0029 5.04014 13.7069 6.09894 13.1274L8.00004 12.0868L9.90114 13.1274Z" fill="white"/>
</mask>
<g mask="url(#mask0_48_4685)">
</g>
</svg>
